<svg xmlns="http://www.w3.org/2000/svg" width="48" height="48" viewBox="0 0 48 48"><g class="nc-icon-wrapper" fill="#020202"><g class="nc-loop_circle-03-48" transform="rotate(15.834965459697079 24 24)"> <path opacity="0.4" fill="#020202" d="M24,48C10.8,48,0,37.2,0,24S10.8,0,24,0s24,10.8,24,24S37.2,48,24,48z M24,4C13,4,4,13,4,24 s9,20,20,20s20-9,20-20S35,4,24,4z"></path> <path data-color="color-2" d="M48,24h-4c0-11-9-20-20-20V0C37.2,0,48,10.8,48,24z"></path> </g> <script>!function(){function t(t){return.5>t?4*t*t*t:(t-1)*(2*t-2)*(2*t-2)+1}function i(t){this.element=t,this.animationId,this.start=null,this.init()}if(!window.requestAnimationFrame){var n=null;window.requestAnimationFrame=function(t,i){var e=(new Date).getTime();n||(n=e);var a=Math.max(0,16-(e-n)),o=window.setTimeout(function(){t(e+a)},a);return n=e+a,o}}i.prototype.init=function(){var t=this;this.animationId=window.requestAnimationFrame(t.triggerAnimation.bind(t))},i.prototype.reset=function(){var t=this;window.cancelAnimationFrame(t.animationId)},i.prototype.triggerAnimation=function(i){var n=this;this.start||(this.start=i);var e=i-this.start;900>e||(this.start=this.start+900),this.element.setAttribute("transform","rotate("+Math.min(900*t(e/900)/2.5,360)+" 24 24)");if(document.documentElement.contains(this.element))window.requestAnimationFrame(n.triggerAnimation.bind(n))};var e=document.getElementsByClassName("nc-loop_circle-03-48"),a=[];if(e)for(var o=0;e.length>o;o++)!function(t){a.push(new i(e[t]))}(o);document.addEventListener("visibilitychange",function(){"hidden"==document.visibilityState?a.forEach(function(t){t.reset()}):a.forEach(function(t){t.init()})})}();</script></g></svg>